<?xml version="1.0" encoding="utf-8"?>
<!-- Generator: Adobe Illustrator 21.0.0, SVG Export Plug-In . SVG Version: 6.00 Build 0)  -->
<svg version="1.0" id="layer" xmlns="http://www.w3.org/2000/svg" xmlns:xlink="http://www.w3.org/1999/xlink" x="0px" y="0px"
	 viewBox="0 0 128 128" style="enable-background:new 0 0 128 128;" xml:space="preserve">
<style type="text/css">
	.st0{fill:#77DCCD;}
	.st1{fill:#59ABFF;}
</style>
<path class="st0" d="M93.9,24l-6,10h-12l-6-10l6-10h12L93.9,24z M87.9,38h-12l-6,10l6,10h12l6-10L87.9,38z M110.4,50h-12l-6,10l6,10
	h12l6-10L110.4,50z M87.9,62h-12l-6,10l6,10h12l6-10L87.9,62z M87.9,86h-12l-6,10l6,10h12l6-10L87.9,86z M110.4,98h-12l-6,10l6,10
	h12l6-10L110.4,98z"/> 
<path class="st1" d="M58.7,24l-6,10h-12l-6-10l6-10h12L58.7,24z M30.3,26h-12l-6,10l6,10h12l6-10L30.3,26z M30.3,50h-12l-6,10l6,10
	h12l6-10L30.3,50z M52.7,62h-12l-6,10l6,10h12l6-10L52.7,62z M52.7,86h-12l-6,10l6,10h12l6-10L52.7,86z M30.3,98h-12l-6,10l6,10h12
	l6-10L30.3,98z"/>
</svg>